M48
;Layer_Color=9474304
;FILE_FORMAT=4:4
METRIC,LZ
;TYPE=PLATED
T1F00S00C0.3000
T2F00S00C1.0000
T3F00S00C1.8000
T4F00S00C4.0000
%
T01
X-008725Y00115
Y001225
Y0013
Y001375
Y00145
X-00825Y00135
Y00125
Y0011
Y00095
X-00778Y00122
Y0013
X-0077
Y00122
X-00762
Y0013
Y00138
Y00146
X-0077
X-00778
Y00138
X-0077
X-00754
Y00146
X-00746
Y00138
Y0013
X-00754
Y00122
X-00746
X-00738
Y0013
X-0073
Y00122
X-00722
Y0013
Y00138
Y00146
X-0073
X-00738
Y00138
X-0073
X-00736Y00098
X-00748
X-00742Y00092
X-006925Y00095
X-006825
X-006725
X-006565Y0008375
Y0007625
Y0006875
Y0006125
X-006435
Y0006875
Y0007625
Y0008375
X-00635Y0012
X-00625
Y00135
X-00635
X-00665
X-00675
Y0012
X-00665
X-006025Y00095
X-005925
X-00568Y00098
X-0056Y00082
X-00552
X-00548Y0009
X-00544Y00098
X-00546Y00122
X-00554
X-00562
X-0057
X-00578
Y0013
Y00138
Y00146
X-0057
X-00562
Y00138
X-0057
Y0013
X-00562
X-00554
Y00138
X-00546
Y0013
X-00538
Y00138
Y00146
X-00546
X-00554
X-0053
X-00522
Y00138
X-0053
Y0013
X-00522
Y00122
X-0053
X-00538
X-0053Y00065
X-004565Y000625
Y00055
Y0007
Y000775
Y00085
X-00465Y0012
X-00475
Y00135
X-00465
X-006175Y00045
X-006125Y000375
X-006075Y0003
X-006025Y000225
X-005975Y00015
X-005925Y000075
X-007075
X-007025Y00015
X-006975Y000225
X-006925Y0003
X-006875Y000375
X-006825Y00045
X-0077Y00065
X-004435Y000625
Y00055
Y0007
Y000775
Y00085
X-00435Y0012
X-00425
Y00135
X-00435
X-00378Y00138
Y00146
X-0037
Y00138
Y0013
X-00378
Y00122
X-0037
X-00362
Y0013
Y00138
Y00146
X-00354
Y00138
X-00346
Y00146
X-00338
Y00138
X-0033
Y00146
X-00322
Y00138
Y0013
Y00122
X-0033
X-00338
Y0013
X-0033
X-00346
X-00354
Y00122
X-00346
X-00348Y00098
X-00336
X-00342Y00092
X-002925Y00095
X-002825
X-002725
X-002565Y00085
Y000775
Y0007
Y000625
X-002435
Y0007
Y000775
Y00085
X-00235Y0012
X-00225Y0012
Y00135
X-00235
X-00265
X-00275
Y0012
X-00265Y0012
X-002025Y00095
X-001925
X-00168Y00098
X-0016Y00082
X-00152
X-00148Y0009
X-00144Y00098
X-00146Y00122
X-00154
X-00162
X-0017
X-00178
Y0013
Y00138
Y00146
X-0017
X-00162
Y00138
X-0017
Y0013
X-00162
X-00154
Y00138
X-00146
Y0013
X-00138
Y00138
Y00146
X-00146
X-00154
X-0013
X-00122
Y00138
X-0013
Y0013
X-00122
Y00122
X-0013
X-00138
X-0013Y00065
X-000725Y00095
Y0011
Y00125
Y00135
X-002175Y00045
X-002125Y000375
X-002075Y0003
X-002025Y000225
X-001975Y00015
X-001925Y000075
X-003075
X-003025Y00015
X-002975Y000225
X-002925Y0003
X-002875Y000375
X-002825Y00045
X-0037Y00065
X-000225Y00115
Y001225
X-000225Y0013
X-000225Y001375
Y00145
Y00195
Y002025
Y0021
Y002175
Y00225
X-000225Y00275
Y002825
Y0029
Y002975
Y00305
Y00355
Y003625
Y0037
Y003775
Y00385
Y00435
Y004425
Y0045
Y004575
Y00465
Y00515
Y005225
Y0053
Y005375
X-000725Y00535
Y00525
Y0051
Y00495
X-00144Y00498
X-00148Y0049
X-00152Y00482
X-0016
X-00168Y00498
X-0017Y00522
X-00162
Y0053
X-0017
Y00538
X-00162
X-00154
Y0053
X-00146
Y00538
X-00138
Y0053
Y00522
X-00146
X-00154
X-00178
Y0053
Y00538
X-0013
Y0053
X-00122
Y00538
Y00522
X-0013
Y00465
Y00435
X-00158Y00408
X-00152Y00402
X-00164
X-00162Y00378
Y0037
X-0017
Y00378
X-00178
Y0037
Y00362
Y00354
X-0017
X-00162
Y00362
X-0017
X-00154
X-00146
Y00354
X-00154
Y00346
X-00146
X-00138
X-0013
X-00122
Y00338
Y0033
X-0013
Y00338
X-00138
Y0033
Y00322
X-0013
X-00122
X-00146
X-00154
Y0033
X-00146
Y00338
X-00154
X-00162
Y0033
X-0017
Y00338
Y00346
X-00162
X-00178
Y00338
Y0033
Y00322
X-0017
X-00162
X-00168Y00298
X-0016Y00282
X-00152
X-00148Y0029
X-00144Y00298
X-0013Y00265
Y00235
X-00158Y00208
X-00152Y00202
X-00164
X-00162Y00178
X-0017
Y0017
X-00162
Y00162
X-0017
Y00154
X-00162
X-00154
Y00162
X-00146
Y00154
X-00138
Y00162
Y0017
Y00178
X-00146
X-00154
Y0017
X-00146
X-0013
Y00178
X-00122
Y0017
Y00162
X-0013
Y00154
X-00122
X-000725Y0015
Y00165
Y00175
Y0019
Y00205
Y00295
Y0031
Y00325
Y00335
Y0035
Y00365
Y00374997
Y00389997
Y00404997
X-00122Y00378
Y0037
X-0013
Y00378
X-00138
Y0037
Y00362
Y00354
X-0013
X-00122
Y00362
X-0013
X-00146Y0037
Y00378
X-00154
Y0037
X-00225Y00365
X-00235
Y0035
X-00225
Y00335
X-00235Y00335
Y0032
X-00225Y0032
X-00265Y0032
X-00275Y0032
Y00335
X-00265Y00335
Y0035
X-00275
Y00365
X-00265
Y0038
X-00275Y0038
X-00235Y0038
X-00225Y0038
X-002275Y00405
X-002175
X-002075
X-002435Y0041875
Y0042625
Y0043375
Y0044125
X-002565
Y0043375
Y0042625
Y0041875
Y0045875
Y0046625
Y0047375
Y0048125
X-002435Y0048125
Y0047375
Y0046625
Y0045875
X-002725Y00495
X-002825
X-002925
X-00275Y0052
X-00265
Y00535
X-00275
X-00235
X-00225
Y0052
X-00235
X-002025Y00495
X-001925
X-00336Y00498
X-00348
X-00342Y00492
X-00338Y00522
Y0053
X-0033
Y00522
X-00322
Y0053
Y00538
X-0033
X-00338
X-00346
X-00354
X-00362
X-0037
X-00378
Y0053
Y00522
X-0037
Y0053
X-00362
Y00522
X-00354
Y0053
X-00346
Y00522
X-00425Y0052
X-00435
Y00535
X-00425
X-004435Y0048125
Y0047375
Y0046625
Y0045875
Y0044125
Y0043375
Y0042625
Y0041875
X-00435Y0038
X-00425
Y00365
X-00435
Y0035
X-00425
Y00335
X-00435
Y0032
X-00425
X-00378Y00322
X-0037
Y0033
X-00378
Y00338
X-0037
Y00346
X-00378
Y00354
X-0037
X-00362
X-00354
X-00346
X-00338
X-0033
X-00322
Y00346
Y00338
Y0033
Y00322
X-0033
Y0033
X-00338
Y00322
X-00346
Y0033
X-00354
Y00322
X-00362
Y0033
Y00338
Y00346
X-00354
X-00346
Y00338
X-00354
X-00338
X-0033
Y00346
X-00338
Y00362
X-0033
Y0037
X-00338
Y00378
X-0033
X-00322
Y0037
Y00362
X-00346
Y0037
X-00354
Y00362
X-00362
Y0037
Y00378
X-00354
X-00346
X-0037
X-00378
Y0037
X-0037
Y00362
X-00378
X-00356Y00402
X-00352Y0041
X-00348Y00418
X-0034
X-00332Y00402
X-003075Y00405
X-002975
X-0037Y00435
Y00465
X-00348Y00298
X-00336
X-00342Y00292
X-002925Y00295
X-002825
X-002725
X-002025
X-001925
X-002075Y00205
X-002175
X-002275
X-00225Y0018
X-00235Y0018
Y00165
X-00225
Y0015
X-00235
X-00265
X-00275
Y00165
X-00265
Y0018
X-00275Y0018
X-002975Y00205
X-003075
X-00332Y00202
X-0034Y00218
X-00348
X-00352Y0021
X-00356Y00202
X-00354Y00178
X-00346
Y0017
X-00354
Y00162
X-00346
Y00154
X-00354
X-00362
X-0037
X-00378
Y00162
Y0017
X-0037
Y00162
X-00362
Y0017
Y00178
X-0037
X-00378
X-00338
X-0033
Y0017
X-00338
Y00162
X-0033
Y00154
X-00338
X-00322
Y00162
Y0017
Y00178
X-0037Y00235
Y00265
X-004425Y0026625
Y0025875
Y0027375
Y0028125
Y0024125
Y0023375
Y0022625
Y0021875
X-00435Y0018
X-00425
Y00165
X-00435
Y0015
X-00425
X-00178Y00154
Y00162
Y0017
Y00178
X-00465Y0018
X-00475
Y00165
X-00465
Y0015
X-00475
X-00522Y00154
X-0053
Y00162
X-00522
Y0017
X-0053
Y00178
X-00522
X-00538
Y0017
X-00546
X-00554
Y00178
X-00546
X-00562
X-0057
Y0017
X-00562
Y00162
X-0057
Y00154
X-00562
X-00554
Y00162
X-00546
Y00154
X-00538
Y00162
X-00578
Y00154
Y0017
Y00178
X-00564Y00202
X-00552
X-00558Y00208
X-006075Y00205
X-006175
X-006275
X-00625Y0018
X-00635Y0018
Y00165
X-00625
Y0015
X-00635
X-00665
X-00675
Y00165
X-00665
Y0018
X-00675Y0018
X-006975Y00205
X-007075
X-00732Y00202
X-0074Y00218
X-00748
X-00752Y0021
X-00756Y00202
X-00754Y00178
X-00746
Y0017
X-00754
Y00162
X-00746
Y00154
X-00754
X-00762
X-0077
X-00778
Y00162
Y0017
X-0077
Y00162
X-00762
Y0017
Y00178
X-0077
X-00778
X-00738
X-0073
Y0017
X-00738
Y00162
X-0073
Y00154
X-00738
X-00722
Y00162
Y0017
Y00178
X-0077Y00235
X-0077Y00265
X-00742Y00292
X-00748Y00298
X-00736
X-00738Y00322
X-0073
Y0033
X-00738
Y00338
X-0073
Y00346
X-00738
Y00354
X-0073
X-00722
Y00346
Y00338
Y0033
Y00322
X-00746
Y0033
X-00754
Y00322
X-00762
Y0033
Y00338
Y00346
X-00754
X-00746
Y00338
X-00754
Y00354
X-00746
Y00362
Y0037
X-00754
Y00362
X-00762
Y0037
Y00378
X-00754
X-00746
X-00738
X-0073
X-00722
Y0037
Y00362
X-0073
Y0037
X-00738
Y00362
X-00762Y00354
X-0077
X-00778
Y00346
X-0077
Y00338
X-00778
Y0033
X-0077
Y00322
X-00778
Y00362
X-0077
Y0037
X-00778
Y00378
X-0077
X-00756Y00402
X-00752Y0041
X-00748Y00418
X-0074
X-00732Y00402
X-007075Y00405
X-006975
X-00675Y0038
X-00665Y0038
Y00365
X-00675
Y0035
X-00665
Y00335
X-00675
Y0032
X-00665
X-00635
X-00625
Y00335
X-00635
Y0035
X-00625
Y00365
X-00635
Y0038
X-00625Y0038
X-006275Y00405
X-006175
X-006075
X-00564Y00402
X-00552
X-00558Y00408
X-00562Y00378
Y0037
X-0057
Y00378
X-00578
Y0037
Y00362
Y00354
X-0057
X-00562
Y00362
X-0057
X-00554
X-00546
Y00354
X-00554
Y00346
X-00546
X-00538
X-0053
X-00522
Y00338
Y0033
X-0053
Y00338
X-00538
Y0033
Y00322
X-0053
X-00522
X-00546
X-00554
Y0033
X-00546
Y00338
X-00554
X-00562
Y0033
X-0057
Y00338
Y00346
X-00562
X-00578
Y00338
Y0033
Y00322
X-0057
X-00562
X-00568Y00298
X-0056Y00282
X-00552
X-00548Y0029
X-00544Y00298
X-0053Y00265
Y00235
X-004575Y0023375
Y0024125
Y0022625
Y0021875
X-004565Y0025875
Y0026625
Y0027375
Y0028125
X-00465Y0032
X-00475
Y00335
X-00465
Y0035
X-00475
Y00365
X-00465
Y0038
X-00475
X-00522Y00378
Y0037
X-0053
Y00378
X-00538
Y0037
Y00362
Y00354
X-0053
X-00522
Y00362
X-0053
X-00546Y0037
Y00378
X-00554
Y0037
X-0053Y00435
X-0053Y00465
X-00552Y00482
X-0056
X-00548Y0049
X-00544Y00498
X-00568
X-0057Y00522
X-00562
Y0053
X-0057
Y00538
X-00562
X-00554
Y0053
X-00546
Y00538
X-00538
Y0053
Y00522
X-00546
X-00554
X-00578
Y0053
Y00538
X-0053
Y0053
X-00522
Y00538
Y00522
X-0053
X-00475Y0052
X-00465
Y00535
X-00475
X-004565Y0048125
Y0047375
Y0046625
Y0045875
Y0044125
Y0043375
Y0042625
Y0041875
X-006435
Y0042625
Y0043375
Y0044125
X-006565
Y0043375
Y0042625
Y0041875
Y0045875
Y0046625
Y0047375
Y0048125
X-006435Y0048125
Y0047375
Y0046625
Y0045875
X-006725Y00495
X-006825
X-006925
X-00675Y0052
X-00665
X-00665Y00535
X-00675
X-00635
X-00625
Y0052
X-00635
X-006025Y00495
X-005925
X-00736Y00498
X-00748
X-00742Y00492
X-00746Y00522
X-00754
Y0053
X-00746
Y00538
X-00754
X-00762
X-0077
X-00778
Y0053
Y00522
X-0077
Y0053
X-00762
Y00522
X-00738
Y0053
X-0073
Y00522
X-00722
Y0053
Y00538
X-0073
X-00738
X-00825Y00535
Y00525
Y0051
Y00495
X-0077Y00465
Y00435
X-00825Y00404997
Y00389997
Y00374997
Y00365
Y0035
Y00335
Y00325
Y0031
Y00295
Y00205
Y0019
Y00175
Y00165
Y0015
X-006925Y00295
X-006825
X-006725
X-006025Y00295
X-005925
X-008725Y002975
Y0029
Y002825
Y00275
Y00305
X-008725Y00355
Y003625
Y0037
Y003775
Y00385
Y00435
Y004425
Y0045
Y004575
Y00465
Y00515
Y005225
Y0053
Y005375
X-008725Y00225
Y002175
Y0021
Y002025
Y00195
X-008725Y00545
Y00595
Y006025
Y0061
Y006175
Y00625
X-008725Y00675
Y006825
Y0069
Y006975
Y00705
Y00755
Y007625
X-008725Y0077
X-008725Y007775
Y00785
X-00869498Y00927252
X-00861998
X-00854499Y00927001
X-00854999Y00937001
X-00862499
X-00869999
X-00877499
X-00884999
X-00884498Y00927252
X-00876998
X-00846998
X-00847999Y00937001
X-00839499Y00932001
X-00786998Y00927252
X-00776998
X-00766998
X-00756998
X-00755499Y00937001
X-00748499Y00937001
X-00762999Y00937001
X-00770499
X-00777999
X-00785499
X-00724999
X-00717499
X-00709999
X-00702499
X-00694999
X-00687999Y00937001
X-00686998Y00927252
X-00694499Y00927001
X-00701998Y00927252
X-00709498
X-00716998
X-00724498
X-00679499Y00932001
X-00626998Y00927252
X-00616998
X-00606998
X-00596998
X-00595499Y00937001
X-00588499Y00937001
X-00602999Y00937001
X-00610499
X-00617999
X-00625499
X-00565999
X-00558499
X-00550999
X-00543499
X-00535999
X-00528999Y00937001
X-00527998Y00927252
X-00535499Y00927001
X-00542998Y00927252
X-00550498
X-00557998
X-00565498
X-00520499Y00932001
X-00467998Y00927252
X-00457998
X-00458999Y00937001
X-00466499
X-004565Y0088125
Y0087375
Y0086625
Y0085875
X-00465Y0078
X-00475Y0078
Y00765
X-00465
Y0075
X-00475
Y00735
X-00465
Y0072
X-00475
Y007
X-004565Y0068125
Y0067375
Y0066625
Y0065875
Y0064125
Y0063375
Y0062625
Y0061875
X-00465Y0058
X-00475
Y00565
X-00465
Y0055
X-00475
X-00522Y00546
X-0053
X-00538
X-00546
X-00554
X-00562
X-0057
X-00578
Y00554
Y00562
Y0057
Y00578
X-0057
Y0057
X-00562
Y00578
X-00554
Y0057
X-00546
Y00578
X-00538
Y0057
Y00562
Y00554
X-00546
X-00554
Y00562
X-00546
X-00562
X-0057
Y00554
X-00562
X-0053
Y00562
X-00522
Y00554
Y0057
X-0053
Y00578
X-00522
X-00552Y00602
X-00564
X-00558Y00608
X-006075Y00605
X-006175
X-006275
X-00625Y0058
X-00635Y0058
Y00565
X-00625
Y0055
X-00635
X-00665
X-00675
Y00565
X-00665
Y0058
X-00675Y0058
X-006975Y00605
X-007075
X-00732Y00602
X-0074Y00618
X-00748
X-00752Y0061
X-00756Y00602
X-00754Y00578
X-00746
Y0057
X-00754
Y00562
X-00746
Y00554
X-00754
X-00762
X-0077
X-00778
Y00562
Y0057
X-0077
Y00562
X-00762
Y0057
Y00578
X-0077
X-00778
Y00546
X-0077
X-00762
X-00754
X-00746
X-00738
X-0073
Y00554
X-00738
Y00562
Y0057
X-0073
Y00562
X-00722
Y0057
Y00578
X-0073
X-00738
X-00722Y00554
Y00546
X-00825Y0055
Y00565
Y00575
Y0059
Y00605
X-0077Y00635
X-00770001Y00665
X-00742Y006915
X-00736Y00698
X-00748001
X-00746Y00722
Y0073
X-00754
Y00722
X-00762
Y0073
Y00738
Y00746
X-00754
X-00746
Y00738
X-00754
X-00738
X-0073
Y00746
X-00738
Y00754
X-0073
X-00722
Y00746
Y00738
Y0073
Y00722
X-0073
Y0073
X-00738
Y00722
X-0077
Y0073
X-00778
Y00722
Y00738
X-0077
Y00746
X-00778
Y00754
X-0077
X-00762
X-00754
X-00746
Y00762
Y0077
X-00754
Y00762
X-00762
Y0077
Y00778
X-00754
X-00746
X-00738
X-0073
X-00722
Y0077
Y00762
X-0073
Y0077
X-00738
Y00762
X-0077
Y0077
X-00778
Y00762
Y00778
X-0077
X-00756Y00802
X-0075225Y0081
X-0074875Y008195
X-007385Y0082
X-00732Y00802
X-00707501Y00805
X-00697501
X-00675Y0078
X-00665Y0078
Y00765
X-00675
Y0075
X-00665
Y00735
X-00675
Y0072
X-00665
X-00635
X-00625
Y00735
X-00635
Y0075
X-00625
Y00765
X-00635
Y0078
X-00625Y0078
X-006275Y00805
X-006175
X-006075
X-00564Y00802
X-00552
X-00558Y00808
X-00554Y00778
X-00546
Y0077
X-00554
Y00762
X-00546
Y00754
X-00554
Y00746
X-00546
X-00538
X-0053
X-00522
Y00738
Y0073
X-0053
Y00738
X-00538
Y0073
Y00722
X-0053
X-00522
X-00546
X-00554
Y0073
X-00546
Y00738
X-00554
X-00562
Y0073
X-0057
Y00738
Y00746
X-00562
Y00754
Y00762
X-0057
Y00754
X-00578
Y00762
Y0077
Y00778
X-0057
X-00562
Y0077
X-0057
X-00538
Y00778
X-0053
X-00522
Y0077
X-0053
Y00762
X-00522
Y00754
X-0053
X-00538
Y00762
X-00578Y00746
Y00738
Y0073
Y00722
X-0057
X-00562
X-00568Y00698
X-0056Y00682
X-00552
X-00548Y0069
X-00544Y00698
X-0053Y00665
Y00635
X-005925Y00695
X-006025
X-00672501
X-00682501
X-00692501
X-00825
Y0071
Y00725
Y00735
Y0075
Y00765
Y00775
Y0079
Y00805
X-0077Y00835
X-00725Y0085
X-006565Y0085875
Y0086625
Y0087375
Y0088125
X-006435Y0088125
Y0087375
Y0086625
Y0085875
X-006375Y0085
X-006435Y0084125
Y0083375
Y0082625
Y0081875
X-006565
Y0082625
Y0083375
Y0084125
X-00575Y0085
X-0053Y00835
X-004435Y0085875
Y0086625
Y0087375
Y0088125
X-0043Y0085
X-0044Y008025
X-00435Y0078
X-00425Y0078
Y00765
X-00435
Y0075
X-00425
Y00735
X-00435
Y0072
X-00425
X-00378Y00722
X-0037
Y0073
X-00378
Y00738
X-0037
Y00746
X-00378
Y00754
X-0037
X-00362
X-00354
X-00346
X-00338
X-0033
X-00322
Y00746
Y00738
Y0073
Y00722
X-0033
Y0073
X-00338
Y00722
X-00346
Y0073
X-00354
Y00722
X-00362
Y0073
Y00738
Y00746
X-00354
X-00346
Y00738
X-00354
X-00338
X-0033
Y00746
X-00338
Y00762
X-0033
Y0077
X-00338
Y00778
X-0033
X-00322
Y0077
Y00762
X-00346
Y0077
X-00354
Y00762
X-00362
Y0077
Y00778
X-00354
X-00346
X-0037
X-00378
Y0077
X-0037
Y00762
X-00378
X-00356Y00802
X-00352Y0081
X-00348Y00818
X-0034
X-00332Y00802
X-003075Y00805
X-002975
X-00275Y0078
X-00265Y0078
Y00765
X-00275
Y0075
X-00265
Y00735
X-00275
Y0072
X-00265
X-00235
X-00225
Y00735
X-00235
Y0075
X-00225
Y00765
X-00235
Y0078
X-00225Y0078
X-002275Y00805
X-002175
X-002075
X-00164Y00802
X-00152
X-00158Y00808
X-00154Y00778
X-00146
Y0077
X-00154
Y00762
X-00146
Y00754
X-00154
Y00746
X-00146
X-00138
X-0013
X-00122
Y00738
Y0073
X-0013
Y00738
X-00138
Y0073
Y00722
X-0013
X-00122
X-00146
X-00154
Y0073
X-00146
Y00738
X-00154
X-00162
Y0073
X-0017
Y00738
Y00746
X-00162
Y00754
Y00762
X-0017
Y00754
X-00178
Y00762
Y0077
Y00778
X-0017
X-00162
Y0077
X-0017
X-00138
Y00778
X-0013
X-00122
Y0077
X-0013
Y00762
X-00122
Y00754
X-0013
X-00138
Y00762
X-00178Y00746
Y00738
Y0073
Y00722
X-0017
X-00162
X-00168Y00698
X-0016Y00682
X-00152
X-00148Y0069
X-00144Y00698
X-0013Y00665
Y00635
X-00158Y00608
X-00152Y00602
X-00164
X-00162Y00578
X-0017
Y0057
X-00162
Y00562
X-0017
Y00554
X-00162
Y00546
X-0017
X-00178
Y00554
Y00562
Y0057
Y00578
X-00154
Y0057
X-00146
Y00578
X-00138
Y0057
Y00562
Y00554
X-00146
X-00154
Y00562
X-00146
Y00546
X-00154
X-00138
X-0013
X-00122
Y00554
X-0013
Y00562
X-00122
Y0057
X-0013
Y00578
X-00122
X-000725Y00575
Y00565
Y0055
Y0059
Y00605
Y00695
Y0071
Y00725
Y00735
Y0075
Y00765
Y00775
Y0079
Y00805
X-0013Y00835
X-00132Y0093575
X-00102869Y0093925
X-0010225Y009315
X-00085999Y00913633
X-00086Y00898
X-0017Y00915
X-0018
X-0019
X-002
X-0021
X-0023
X-0022Y00904
X-002275Y0094
X-002435Y0088125
Y0087375
Y0086625
Y0085875
X-002565Y0085875
Y0086625
Y0087375
Y0088125
Y0084125
Y0083375
Y0082625
Y0081875
X-002435
Y0082625
Y0083375
Y0084125
X-0037Y00835
X-003225Y009
X-00437998Y00927252
X-00447998
X-00451499Y00937001
X-00443999
X-00436499
X-00429499Y00937001
X-004435Y0068125
Y0067375
Y0066625
Y0065875
Y0064125
Y0063375
Y0062625
Y0061875
X-00435Y0058
X-00425
Y00565
X-00435
Y0055
X-00425
X-00378Y00554
X-0037
Y00562
X-00378
Y0057
X-0037
Y00578
X-00378
X-00362
Y0057
Y00562
Y00554
Y00546
X-0037
X-00378
X-00354
X-00346
Y00554
X-00354
Y00562
Y0057
X-00346
Y00562
X-00338
Y0057
X-0033
Y00562
Y00554
X-00338
Y00546
X-0033
X-00322
Y00554
Y00562
Y0057
Y00578
X-0033
X-00338
X-00346
X-00354
X-00356Y00602
X-00352Y0061
X-00348Y00618
X-0034
X-00332Y00602
X-003075Y00605
X-002975
X-00275Y0058
X-00265
Y00565
X-00275
Y0055
X-00265
X-00235
X-00225
Y00565
X-00235
Y0058
X-00225
X-002275Y00605
X-002175
X-002075
X-002025Y00695
X-001925
X-002725
X-002825
X-002925
X-00336Y00698
X-00348
X-00342Y00692
X-0037Y00665
Y00635
X-000225Y00625
Y006175
Y0061
Y006025
Y00595
X-000225Y00545
X-000225Y00675
Y006825
Y0069
Y006975
Y00705
Y00755
Y007625
Y0077
Y007775
Y00785
X-00034617Y009675
Y00985
X-00043499Y01002501
X-00027999Y01005001
X-00024999Y01044501
X-00009999
X-00010385Y01077501
X-00015Y01083
X-00024999Y01077501
X-00044999Y01075001
X-00052499Y01100001
X-00049999Y01115001
X-00057999
X-00039999Y01115001
X-00014999Y01120001
X-00015Y01151
X-00044999Y01189501
X-00037499Y01230001
X-0005534Y01026515
X-000585Y0101825
X-00068999Y01002501
X-00094499
X-00119499
X-001195Y01015749
X-00109999Y01015251
X-00103257Y01020509
X-00124499Y01022501
X-00132499Y01018839
X-00145999Y01014501
X-00144999Y01002501
X-001475Y009905
X-0017Y00995
X-00185
X-002275Y01005
X-00227499Y01020001
X-00228079Y01035001
X-00227499Y01050001
Y01065001
X-00228079Y01075746
X-00219999Y01080001
X-00243Y01077
X-00252999Y01072001
X-00279499Y01074499
X-0028Y0106525
X-002825Y010575
X-0027Y0105
X-00259999Y01050001
Y01035001
Y01017501
X-00259999Y0100297
X-00259999Y00970751
X-00277847Y01090001
X-002795Y01108
X-0030375Y011075
X-00305Y01145
X-002975
X-0029
X-00283Y01145
X-00285Y01155
X-00278Y01155
X-0027Y01155
Y011625
Y0117
Y011775
Y01185
X-0027Y01192
X-0026Y01187
X-0026Y0118
Y011725
Y01165
Y011575
Y0115
X-0025175Y0115325
X-00240915Y011305
X-00234999Y01124749
X-00229999Y01115001
X-0022475Y011075
X-00242584Y01110001
X-00228623Y01135625
X-00219999Y01136664
X-0016475Y011325
X-001575Y01128
X-00147499Y01124501
X-00139Y0113225
X-00134999Y01165001
X-00144999
X-00140999Y01200001
X-00114999
X-00116999Y012196
X-00124999Y01220001
X-00132999
X-00148999
X-00193019Y0120802
X-00189999Y01189001
Y01170001
X-00216499Y01226251
Y01247501
X-0026Y0125
Y012425
Y01235
Y012275
Y0122
X-0026Y01213
X-0027Y01215
X-0027Y01208
X-0027Y012225
Y0123
Y012375
Y01245
X-00278Y0124
X-00285Y0124
X-002925
X-003
X-003075
X-00315
X-00323Y0124
X-0033Y0124
X-003375
X-00345
X-003525
X-0036
X-003635Y01232
X-003635Y01225
Y012175
Y0121
Y012025
Y01195
X-003635Y01187
X-003635Y0118
Y011725
Y01165
X-0036Y01155
X-003525
X-00345
X-003375
X-0033
X-00323Y01155
X-00315Y01155
X-003075
X-003
X-002925
X-003125Y01145
X-0032
X-00328Y01145
X-00335Y01145
X-003425
X-0035
X-003575
X-00365
X-00410125Y01142375
X-0041Y011325
Y011225
X-0041025Y01153
X-004325Y011525
X-00440999Y01136001
X-00451Y01132
X-00450999Y01092501
Y01085001
Y01077501
Y01070001
Y01062501
Y01055001
Y01047501
Y01040001
Y01032501
Y01025001
Y01017501
X-00447998Y00997001
X-00437998
X-00436499Y00987001
X-00429499
Y00977001
X-00436499Y00977001
X-00443999
X-00451499
Y00987001
X-00443999
X-00429499Y00967001
Y00957001
Y00947001
X-00436499Y00947001
X-00443999
X-00451499
X-00440998Y01094
X-0044625Y0117725
X-0044925Y0121025
X-00433999Y01207497
X-0041Y01184
X-00365Y0125
X-003575
X-0035
X-003425
X-00335
X-00328Y0125
X-0032Y0125
X-003125
X-00305
X-002975
X-0029
X-00283Y0125
X-00275Y01262251
X-00263Y0129475
X-00236249Y01303001
X-00162499Y01295001
X-00152499
X-00142499
X-00132499
X-00122499
X-00112499Y01295001
X-00102499Y01295001
X-00088499Y01277501
Y01267501
Y01257501
X-00080499Y01189501
X-00065999
X-0006Y0115275
X-00077499Y01150001
Y01140001
X-00072499Y01132501
X-00074617Y01117751
X-00066589Y01115001
X-00074617Y01087251
X-00069999Y01080001
X-00059999Y01075501
X-00100424Y01075001
Y01085001
X-00109999Y01057501
X-00115889Y01050001
X-00148999Y01052501
X-00189Y01068
X-00182499Y01079624
X-00182999Y01090001
X-00132499Y01100001
X-00094999Y01154751
X-00177499Y01257501
Y01267501
Y01277501
X-00121249Y00988751
X-0012425Y009655
X-00102869Y009595
X-00458999Y00947001
X-00466499
Y00977001
X-00458999
Y00987001
X-00466499
X-00467998Y00997001
X-00457998
X-00470999Y01017501
Y01025001
Y01032501
Y01040001
Y01047501
Y01055001
Y01062501
Y01070001
Y01077501
Y01085001
Y01092501
Y01100001
Y01107501
Y01115001
Y01122501
X-00475Y01144501
X-00484999
X-00499Y01133
X-005055
X-00511749Y01133001
Y01121951
X-00505499Y01122001
X-00499249Y01121949
Y01109249
X-00505499
X-00511749
Y01096501
X-00505499
X-00505249Y01090251
X-00511499
X-00500249Y01093501
X-00499999Y01086751
X-00499249Y01070553
X-00505499
X-00511749
Y01059503
X-00505499Y01059553
X-00499249Y01059501
Y01046801
X-00505499
X-00511749
Y01034053
X-00505499
X-00499249
X-00499249Y01027751
X-00505499
X-00511749
X-00532999Y01027001
X-00540499
X-00547999
X-00555499
X-00562999
X-00562999Y01034501
X-00555499
Y01046801
X-00562999
Y01059501
X-00555499
X-00546999Y01058001
Y01050501
Y01043001
X-00536999Y01043002
Y01050502
Y01058002
Y01065502
Y01073002
X-00546999Y01073001
Y01065501
X-00555499Y01072201
X-00562999
Y01084501
X-00555499
X-00557999Y01090725
X-00565499
X-00562999Y01097001
X-00555499Y01097003
X-00550499Y01090725
X-00542999
X-00535499
X-00528177
X-00528355Y01104448
X-00536999Y01108002
Y01115502
Y01123002
Y01130502
Y01138002
X-00546999Y01138001
Y01130501
Y01123001
Y01115501
Y01108001
X-00555499Y01109501
X-00562999Y01109249
Y01121949
X-00555499
Y01134749
X-00562999Y01134649
Y01148751
X-00563Y011555
X-00550499Y01155501
Y01148751
X-00537999
Y01155501
X-00528355Y01141948
Y01129448
Y01116948
X-00527999Y01077001
Y01064501
Y01052001
Y01039501
X-00532998Y01017001
X-00540498
X-00547998
X-00555498
X-00562998
X-00562999Y01007001
X-00555499
X-00547999
X-00540499
X-00532999
X-00533248Y00997004
X-00540748
X-00548248
X-00555748
X-00563248
X-00565999Y00987001
X-00558499
X-00550999
X-00543499
X-00535999
X-00528999
Y00977001
X-00535999Y00977001
X-00543499
X-00550999
X-00558499
X-00565999
Y00967001
Y00957001
Y00947001
X-00558499
X-00550999
X-00543499
X-00535999
X-00528999Y00947001
X-00520499Y00952001
Y00962001
Y00972001
Y00982001
X-00520498Y00992252
Y01002252
X-00525498Y00997252
X-00520499Y00942001
X-00588499Y00947001
X-00595499Y00947001
X-00602999
X-00610499
X-00617999
X-00625499
Y00977001
X-00617999
X-00610499
X-00602999
X-00595499
X-00588499Y00977001
Y00987001
X-00595499
X-00602999
X-00610499
X-00617999
X-00625499
X-00626998Y00997001
X-00616998
X-00606998
X-00596998
X-00609999Y01017501
Y01025001
Y01032501
Y01040001
Y01047501
Y01055001
Y01062501
Y01070001
Y01077501
Y01085001
Y01092501
X-00599999Y01095001
X-00629999Y01092501
Y01100001
Y01107501
Y01115001
Y01122501
X-00634Y01144501
X-00643999
X-0065825Y01133
X-006645
X-00670749Y01133001
Y01121951
X-00664499Y01122001
X-00658249Y01121949
Y01109249
X-00664499
X-00670749
Y01096501
X-00664499
X-00664249Y01090251
X-00670499
X-00659249Y01093501
X-00658999Y01086751
X-00658249Y01070553
X-00664499
X-00670749
Y01059503
X-00664499Y01059553
X-00658249Y01059501
Y01046801
X-00664499
X-00670749
Y01034053
X-00664499
X-00658249
X-00658249Y01027751
X-00664499
X-00670749
X-00691999Y01027001
X-00699499
X-00706999
X-00714499
X-00721999
X-00721999Y01034501
X-00714499
Y01046801
X-00721999
Y01059501
X-00714499
X-00705999Y01058001
Y01050501
Y01043001
X-00695999Y01043002
Y01050502
Y01058002
Y01065502
Y01073002
X-00705999Y01073001
Y01065501
X-00714499Y01072201
X-00721999
Y01084501
X-00714499
X-00716999Y01090725
X-00724499
X-00721999Y01097001
X-00714499Y01097003
X-00709499Y01090725
X-00701999
X-00694499
X-00687177
X-00687355Y01104448
X-00695999Y01108002
Y01115502
Y01123002
Y01130502
Y01138002
X-00705999Y01138001
Y01130501
Y01123001
Y01115501
Y01108001
X-00714499Y01109501
X-00721999Y01109249
Y01121949
X-00714499
Y01134749
X-00721999Y01134649
Y01149501
Y01157001
X-00709499
Y01149501
X-00696999
Y01157001
X-00687355Y01141948
Y01129448
Y01116948
X-00686999Y01077001
Y01064501
Y01052001
Y01039501
X-00691998Y01017001
X-00699498
X-00706998
X-00714498
X-00721998
X-00721999Y01007001
X-00714499
X-00706999
X-00699499
X-00691999
X-00692248Y00997004
X-00699748
X-00707248
X-00714748
X-00722248
X-00724999Y00987001
X-00717499
X-00709999
X-00702499
X-00694999
X-00687999
Y00977001
X-00694999Y00977001
X-00702499
X-00709999
X-00717499
X-00724999
Y00967001
Y00957001
Y00947001
X-00717499
X-00709999
X-00702499
X-00694999
X-00687999Y00947001
X-00679499Y00952001
Y00962001
Y00972001
Y00982001
X-00679498Y00992252
Y01002252
X-00684498Y00997252
X-00679499Y00942001
X-00748499Y00947001
X-00755499Y00947001
X-00762999
X-00770499
X-00777999
X-00785499
Y00977001
X-00777999
X-00770499
X-00762999
X-00755499
X-00748499Y00977001
Y00987001
X-00755499
X-00762999
X-00770499
X-00777999
X-00785499
X-00786998Y00997001
X-00776998
X-00766998
X-00756998
X-0077Y010175
Y01025
Y010325
Y0104
Y010475
Y01055
Y010625
Y0107
Y010775
Y01085
Y010925
X-0076Y01095
X-0079Y010925
Y011
Y011075
Y01115
Y011225
X-00794Y01144501
X-00803999
X-0081825Y01133
X-008245
X-00830749Y01133001
Y01121951
X-00824499Y01122001
X-00818249Y01121949
Y01109249
X-00824499
X-00830749
Y01096501
X-00824499
X-00824249Y01090251
X-00830499
X-00819249Y01093501
X-00818999Y01086751
X-00818249Y01070553
X-00824499
X-00830749
Y01059503
X-00824499Y01059553
X-00818249Y01059501
Y01046801
X-00824499
X-00830749
Y01034053
X-00824499
X-00818249
X-00818249Y01027751
X-00824499
X-00830749
X-00851999Y01027001
X-00851998Y01017001
X-00851999Y01007001
X-00852248Y00997004
X-00844498Y00997252
X-00839498Y01002252
Y00992252
X-00839499Y00982001
Y00972001
Y00962001
Y00952001
Y00942001
X-00847999Y00947001
Y00977001
Y00987001
X-00846999Y01039501
Y01052001
Y01064501
Y01077001
X-00847177Y01090725
X-00847355Y01104448
Y01116948
Y01129448
Y01141948
X-00849499Y01182356
X-00847999Y01191501
X-00840499
X-00840501Y01201501
X-00848001
X-00844199Y01209501
X-00844299Y01217001
X-0083Y01217
Y012045
Y01192
X-00836999Y01182356
X-0082175Y01225
X-0081425
X-0080675
X-0079925
X-0079075Y0121
X-0078325
X-0077575
X-0076825
X-00753Y01207748
X-00728223Y01204501
Y01197001
Y01189501
X-0072825Y011825
X-00714499Y01182356
X-00701999
X-00702999Y01191501
X-00710499
X-00710501Y01201501
X-00703001
X-00695501
X-00688001
X-00680501
X-00680499Y01191501
X-00687999
X-00695499
X-00689499Y01182356
X-00676999
X-0067Y01192
Y012045
Y01217
X-00684299Y01217001
X-00684199Y01209501
X-00696999
Y01217001
X-00709699
X-00709447Y01209501
X-00721945
X-00721947Y01217001
X-00728223Y01219501
Y01212001
X-0066175Y01225
X-0065425
X-0064675
X-0063925
X-0063075Y0121025
X-0062325
X-0061575
X-0060825
X-00592998Y01208497
X-00569223Y01212001
Y01219501
X-00562947Y01217001
X-00562945Y01209501
X-00569223Y01204501
Y01197001
Y01189501
X-0056925Y011825
X-00555499Y01182356
X-00542999
X-00543999Y01191501
X-00551499
X-00551501Y01201501
X-00544001
X-00536501
X-00529001
X-00521501
X-00521499Y01191501
X-00528999
X-00536499
X-00530499Y01182356
X-00517999
X-00511Y01192
Y012045
Y01217
X-00525299Y01217001
X-00525199Y01209501
X-00537999
Y01217001
X-00550699
X-00550447Y01209501
X-0050275Y01225
X-0049525
X-0048775
X-0048025
X-0047175Y0121025
X-0046425
X-0045675
X-0060525Y0117725
X-00590999Y01153501
X-00599999Y01136002
X-0061Y01132
X-00629999Y01085001
Y01077501
Y01070001
Y01062501
Y01055001
Y01047501
Y01040001
Y01032501
Y01025001
Y01017501
X-00588499Y00967001
Y00957001
X-00748499
Y00967001
X-0079Y010175
Y01025
Y010325
Y0104
Y010475
Y01055
Y010625
Y0107
Y010775
Y01085
X-0077Y01132
X-00759999Y01136002
X-00750999Y01153501
X-00856999Y01157001
Y01149501
X-00855999Y01138002
Y01130502
Y01123002
Y01115502
Y01108002
X-00865999Y01108001
Y01115501
Y01123001
Y01130501
Y01138001
X-00874499Y01134749
X-00881999Y01134649
Y01121949
X-00874499
Y01109501
X-00881999Y01109249
Y01097001
X-00874499Y01097003
X-00876999Y01090725
X-00884499
X-00881999Y01084501
X-00874499
X-00869499Y01090725
X-00861999
X-00854499
X-00855999Y01073002
Y01065502
Y01058002
Y01050502
Y01043002
X-00865999Y01043001
Y01050501
Y01058001
Y01065501
Y01073001
X-00874499Y01072201
X-00881999
Y01059501
X-00874499
Y01046801
X-00881999
Y01034501
X-00874499
X-00874499Y01027001
X-00881999
X-00881998Y01017001
X-00874498
X-00866998
X-00859498
X-00859499Y01027001
X-00866999
Y01007001
X-00874499
X-00881999
X-00882248Y00997004
X-00874748
X-00867248
X-00859748
X-00859499Y01007001
X-00862499Y00987001
X-00854999
Y00977001
X-00862499
X-00869999
X-00877499
X-00884999
Y00967001
Y00957001
Y00947001
X-00877499
X-00869999
X-00862499
X-00854999
X-00869999Y00987001
X-00877499
X-00884999
X-00881999Y01149501
Y01157001
X-00869499
Y01149501
X-00874499Y01182356
X-00861999
X-00862999Y01191501
X-00870499
X-00870501Y01201501
X-00863001
X-00855501
X-00856999Y01209501
Y01217001
X-00869699
X-00869447Y01209501
X-00881945
X-00881947Y01217001
X-00888223Y01219501
Y01212001
Y01204501
Y01197001
Y01189501
Y01182178
X-00855499Y01191501
T02
X-0035Y01295
X-00315
X-0028
T03
X-00699Y01242
X-00657
X-00615
Y01297
X-00657
X-00699
T04
X-008625Y000375
X-000375
X-0025Y0025
X-0065Y0025
X-008625Y008625
X-0065Y0065
X-0025Y0065
X-000375Y008625
X-000375Y01275
X-00544Y01275
X-008625Y01275
M30
